<?xml version="1.0" encoding="UTF-8"?>
<!DOCTYPE svg PUBLIC "-//W3C//DTD SVG 1.1//EN" "http://www.w3.org/Graphics/SVG/1.1/DTD/svg11.dtd">
<svg version="1.2" width="180mm" height="80mm" viewBox="0 0 18000 8000" preserveAspectRatio="xMidYMid" fill-rule="evenodd" stroke-width="28.222" stroke-linejoin="round" xmlns="http://www.w3.org/2000/svg" xmlns:ooo="http://xml.openoffice.org/svg/export" xmlns:xlink="http://www.w3.org/1999/xlink" xmlns:presentation="http://sun.com/xmlns/staroffice/presentation" xmlns:smil="http://www.w3.org/2001/SMIL20/" xmlns:anim="urn:oasis:names:tc:opendocument:xmlns:animation:1.0" xml:space="preserve">
 <defs class="ClipPathGroup">
  <clipPath id="presentation_clip_path" clipPathUnits="userSpaceOnUse">
   <rect x="0" y="0" width="18000" height="8000"/>
  </clipPath>
  <clipPath id="presentation_clip_path_shrink" clipPathUnits="userSpaceOnUse">
   <rect x="18" y="8" width="17964" height="7984"/>
  </clipPath>
 </defs>
 <defs class="TextShapeIndex">
  <g ooo:slide="id1" ooo:id-list="id3 id4 id5 id6 id7 id8 id9 id10 id11 id12 id13 id14 id15 id16 id17 id18 id19 id20 id21 id22 id23 id24"/>
 </defs>
 <defs class="EmbeddedBulletChars">
  <g id="bullet-char-template-57356" transform="scale(0.00048828125,-0.00048828125)">
   <path d="M 580,1141 L 1163,571 580,0 -4,571 580,1141 Z"/>
  </g>
  <g id="bullet-char-template-57354" transform="scale(0.00048828125,-0.00048828125)">
   <path d="M 8,1128 L 1137,1128 1137,0 8,0 8,1128 Z"/>
  </g>
  <g id="bullet-char-template-10146" transform="scale(0.00048828125,-0.00048828125)">
   <path d="M 174,0 L 602,739 174,1481 1456,739 174,0 Z M 1358,739 L 309,1346 659,739 1358,739 Z"/>
  </g>
  <g id="bullet-char-template-10132" transform="scale(0.00048828125,-0.00048828125)">
   <path d="M 2015,739 L 1276,0 717,0 1260,543 174,543 174,936 1260,936 717,1481 1274,1481 2015,739 Z"/>
  </g>
  <g id="bullet-char-template-10007" transform="scale(0.00048828125,-0.00048828125)">
   <path d="M 0,-2 C -7,14 -16,27 -25,37 L 356,567 C 262,823 215,952 215,954 215,979 228,992 255,992 264,992 276,990 289,987 310,991 331,999 354,1012 L 381,999 492,748 772,1049 836,1024 860,1049 C 881,1039 901,1025 922,1006 886,937 835,863 770,784 769,783 710,716 594,584 L 774,223 C 774,196 753,168 711,139 L 727,119 C 717,90 699,76 672,76 641,76 570,178 457,381 L 164,-76 C 142,-110 111,-127 72,-127 30,-127 9,-110 8,-76 1,-67 -2,-52 -2,-32 -2,-23 -1,-13 0,-2 Z"/>
  </g>
  <g id="bullet-char-template-10004" transform="scale(0.00048828125,-0.00048828125)">
   <path d="M 285,-33 C 182,-33 111,30 74,156 52,228 41,333 41,471 41,549 55,616 82,672 116,743 169,778 240,778 293,778 328,747 346,684 L 369,508 C 377,444 397,411 428,410 L 1163,1116 C 1174,1127 1196,1133 1229,1133 1271,1133 1292,1118 1292,1087 L 1292,965 C 1292,929 1282,901 1262,881 L 442,47 C 390,-6 338,-33 285,-33 Z"/>
  </g>
  <g id="bullet-char-template-9679" transform="scale(0.00048828125,-0.00048828125)">
   <path d="M 813,0 C 632,0 489,54 383,161 276,268 223,411 223,592 223,773 276,916 383,1023 489,1130 632,1184 813,1184 992,1184 1136,1130 1245,1023 1353,916 1407,772 1407,592 1407,412 1353,268 1245,161 1136,54 992,0 813,0 Z"/>
  </g>
  <g id="bullet-char-template-8226" transform="scale(0.00048828125,-0.00048828125)">
   <path d="M 346,457 C 273,457 209,483 155,535 101,586 74,649 74,723 74,796 101,859 155,911 209,963 273,989 346,989 419,989 480,963 531,910 582,859 608,796 608,723 608,648 583,586 532,535 482,483 420,457 346,457 Z"/>
  </g>
  <g id="bullet-char-template-8211" transform="scale(0.00048828125,-0.00048828125)">
   <path d="M -4,459 L 1135,459 1135,606 -4,606 -4,459 Z"/>
  </g>
  <g id="bullet-char-template-61548" transform="scale(0.00048828125,-0.00048828125)">
   <path d="M 173,740 C 173,903 231,1043 346,1159 462,1274 601,1332 765,1332 928,1332 1067,1274 1183,1159 1299,1043 1357,903 1357,740 1357,577 1299,437 1183,322 1067,206 928,148 765,148 601,148 462,206 346,322 231,437 173,577 173,740 Z"/>
  </g>
 </defs>
 <defs class="TextEmbeddedBitmaps"/>
 <g>
  <g id="id2" class="Master_Slide">
   <g id="bg-id2" class="Background"/>
   <g id="bo-id2" class="BackgroundObjects"/>
  </g>
 </g>
 <g class="SlideGroup">
  <g>
   <g id="container-id1">
    <g id="id1" class="Slide" clip-path="url(#presentation_clip_path)">
     <g class="Page">
      <g class="com.sun.star.drawing.CustomShape">
       <g id="id3">
        <rect class="BoundingBox" stroke="none" fill="none" x="-1" y="-1" width="2003" height="2003"/>
        <path fill="rgb(114,159,207)" stroke="none" d="M 1000,2000 L 0,2000 0,0 2000,0 2000,2000 1000,2000 Z"/>
        <path fill="none" stroke="rgb(52,101,164)" d="M 1000,2000 L 0,2000 0,0 2000,0 2000,2000 1000,2000 Z"/>
       </g>
      </g>
      <g class="com.sun.star.drawing.CustomShape">
       <g id="id4">
        <rect class="BoundingBox" stroke="none" fill="none" x="1999" y="1999" width="2003" height="2003"/>
        <path fill="rgb(114,159,207)" stroke="none" d="M 3000,4000 L 2000,4000 2000,2000 4000,2000 4000,4000 3000,4000 Z"/>
        <path fill="none" stroke="rgb(52,101,164)" d="M 3000,4000 L 2000,4000 2000,2000 4000,2000 4000,4000 3000,4000 Z"/>
       </g>
      </g>
      <g class="com.sun.star.drawing.CustomShape">
       <g id="id5">
        <rect class="BoundingBox" stroke="none" fill="none" x="3999" y="-1" width="2003" height="2003"/>
        <path fill="rgb(114,159,207)" stroke="none" d="M 5000,2000 L 4000,2000 4000,0 6000,0 6000,2000 5000,2000 Z"/>
        <path fill="none" stroke="rgb(52,101,164)" d="M 5000,2000 L 4000,2000 4000,0 6000,0 6000,2000 5000,2000 Z"/>
       </g>
      </g>
      <g class="com.sun.star.drawing.CustomShape">
       <g id="id6">
        <rect class="BoundingBox" stroke="none" fill="none" x="5999" y="1999" width="2003" height="2003"/>
        <path fill="rgb(114,159,207)" stroke="none" d="M 7000,4000 L 6000,4000 6000,2000 8000,2000 8000,4000 7000,4000 Z"/>
        <path fill="none" stroke="rgb(52,101,164)" d="M 7000,4000 L 6000,4000 6000,2000 8000,2000 8000,4000 7000,4000 Z"/>
       </g>
      </g>
      <g class="com.sun.star.drawing.CustomShape">
       <g id="id7">
        <rect class="BoundingBox" stroke="none" fill="none" x="7999" y="-1" width="2003" height="2003"/>
        <path fill="rgb(114,159,207)" stroke="none" d="M 9000,2000 L 8000,2000 8000,0 10000,0 10000,2000 9000,2000 Z"/>
        <path fill="none" stroke="rgb(52,101,164)" d="M 9000,2000 L 8000,2000 8000,0 10000,0 10000,2000 9000,2000 Z"/>
       </g>
      </g>
      <g class="com.sun.star.drawing.CustomShape">
       <g id="id8">
        <rect class="BoundingBox" stroke="none" fill="none" x="9999" y="1999" width="2003" height="2003"/>
        <path fill="rgb(114,159,207)" stroke="none" d="M 11000,4000 L 10000,4000 10000,2000 12000,2000 12000,4000 11000,4000 Z"/>
        <path fill="none" stroke="rgb(52,101,164)" d="M 11000,4000 L 10000,4000 10000,2000 12000,2000 12000,4000 11000,4000 Z"/>
       </g>
      </g>
      <g class="com.sun.star.drawing.CustomShape">
       <g id="id9">
        <rect class="BoundingBox" stroke="none" fill="none" x="7999" y="3999" width="2003" height="2003"/>
        <path fill="rgb(114,159,207)" stroke="none" d="M 9000,6000 L 8000,6000 8000,4000 10000,4000 10000,6000 9000,6000 Z"/>
        <path fill="none" stroke="rgb(52,101,164)" d="M 9000,6000 L 8000,6000 8000,4000 10000,4000 10000,6000 9000,6000 Z"/>
       </g>
      </g>
      <g class="com.sun.star.drawing.CustomShape">
       <g id="id10">
        <rect class="BoundingBox" stroke="none" fill="none" x="-1" y="3999" width="2003" height="2003"/>
        <path fill="rgb(114,159,207)" stroke="none" d="M 1000,6000 L 0,6000 0,4000 2000,4000 2000,6000 1000,6000 Z"/>
        <path fill="none" stroke="rgb(52,101,164)" d="M 1000,6000 L 0,6000 0,4000 2000,4000 2000,6000 1000,6000 Z"/>
       </g>
      </g>
      <g class="com.sun.star.drawing.CustomShape">
       <g id="id11">
        <rect class="BoundingBox" stroke="none" fill="none" x="3999" y="3999" width="2003" height="2003"/>
        <path fill="rgb(114,159,207)" stroke="none" d="M 5000,6000 L 4000,6000 4000,4000 6000,4000 6000,6000 5000,6000 Z"/>
        <path fill="none" stroke="rgb(52,101,164)" d="M 5000,6000 L 4000,6000 4000,4000 6000,4000 6000,6000 5000,6000 Z"/>
       </g>
      </g>
      <g class="com.sun.star.drawing.CustomShape">
       <g id="id12">
        <rect class="BoundingBox" stroke="none" fill="none" x="11999" y="-1" width="2003" height="2003"/>
        <path fill="rgb(114,159,207)" stroke="none" d="M 13000,2000 L 12000,2000 12000,0 14000,0 14000,2000 13000,2000 Z"/>
        <path fill="none" stroke="rgb(52,101,164)" d="M 13000,2000 L 12000,2000 12000,0 14000,0 14000,2000 13000,2000 Z"/>
       </g>
      </g>
      <g class="com.sun.star.drawing.CustomShape">
       <g id="id13">
        <rect class="BoundingBox" stroke="none" fill="none" x="11999" y="3999" width="2003" height="2003"/>
        <path fill="rgb(114,159,207)" stroke="none" d="M 13000,6000 L 12000,6000 12000,4000 14000,4000 14000,6000 13000,6000 Z"/>
        <path fill="none" stroke="rgb(52,101,164)" d="M 13000,6000 L 12000,6000 12000,4000 14000,4000 14000,6000 13000,6000 Z"/>
       </g>
      </g>
      <g class="com.sun.star.drawing.CustomShape">
       <g id="id14">
        <rect class="BoundingBox" stroke="none" fill="none" x="1999" y="5999" width="2003" height="2003"/>
        <path fill="rgb(114,159,207)" stroke="none" d="M 3000,8000 L 2000,8000 2000,6000 4000,6000 4000,8000 3000,8000 Z"/>
        <path fill="none" stroke="rgb(52,101,164)" d="M 3000,8000 L 2000,8000 2000,6000 4000,6000 4000,8000 3000,8000 Z"/>
       </g>
      </g>
      <g class="com.sun.star.drawing.CustomShape">
       <g id="id15">
        <rect class="BoundingBox" stroke="none" fill="none" x="5999" y="5999" width="2003" height="2003"/>
        <path fill="rgb(114,159,207)" stroke="none" d="M 7000,8000 L 6000,8000 6000,6000 8000,6000 8000,8000 7000,8000 Z"/>
        <path fill="none" stroke="rgb(52,101,164)" d="M 7000,8000 L 6000,8000 6000,6000 8000,6000 8000,8000 7000,8000 Z"/>
       </g>
      </g>
      <g class="com.sun.star.drawing.CustomShape">
       <g id="id16">
        <rect class="BoundingBox" stroke="none" fill="none" x="13999" y="1999" width="2003" height="2003"/>
        <path fill="rgb(114,159,207)" stroke="none" d="M 15000,4000 L 14000,4000 14000,2000 16000,2000 16000,4000 15000,4000 Z"/>
        <path fill="none" stroke="rgb(52,101,164)" d="M 15000,4000 L 14000,4000 14000,2000 16000,2000 16000,4000 15000,4000 Z"/>
       </g>
      </g>
      <g class="com.sun.star.drawing.CustomShape">
       <g id="id17">
        <rect class="BoundingBox" stroke="none" fill="none" x="9999" y="5999" width="2003" height="2003"/>
        <path fill="rgb(114,159,207)" stroke="none" d="M 11000,8000 L 10000,8000 10000,6000 12000,6000 12000,8000 11000,8000 Z"/>
        <path fill="none" stroke="rgb(52,101,164)" d="M 11000,8000 L 10000,8000 10000,6000 12000,6000 12000,8000 11000,8000 Z"/>
       </g>
      </g>
      <g class="com.sun.star.drawing.CustomShape">
       <g id="id18">
        <rect class="BoundingBox" stroke="none" fill="none" x="13999" y="5999" width="2003" height="2003"/>
        <path fill="rgb(114,159,207)" stroke="none" d="M 15000,8000 L 14000,8000 14000,6000 16000,6000 16000,8000 15000,8000 Z"/>
        <path fill="none" stroke="rgb(52,101,164)" d="M 15000,8000 L 14000,8000 14000,6000 16000,6000 16000,8000 15000,8000 Z"/>
       </g>
      </g>
      <g class="com.sun.star.drawing.CustomShape">
       <g id="id19">
        <rect class="BoundingBox" stroke="none" fill="none" x="15999" y="-1" width="2003" height="2003"/>
        <path fill="rgb(114,159,207)" stroke="none" d="M 17000,2000 L 16000,2000 16000,0 18000,0 18000,2000 17000,2000 Z"/>
        <path fill="none" stroke="rgb(52,101,164)" d="M 17000,2000 L 16000,2000 16000,0 18000,0 18000,2000 17000,2000 Z"/>
       </g>
      </g>
      <g class="com.sun.star.drawing.CustomShape">
       <g id="id20">
        <rect class="BoundingBox" stroke="none" fill="none" x="15999" y="3999" width="2003" height="2003"/>
        <path fill="rgb(114,159,207)" stroke="none" d="M 17000,6000 L 16000,6000 16000,4000 18000,4000 18000,6000 17000,6000 Z"/>
        <path fill="none" stroke="rgb(52,101,164)" d="M 17000,6000 L 16000,6000 16000,4000 18000,4000 18000,6000 17000,6000 Z"/>
       </g>
      </g>
      <g class="com.sun.star.drawing.CustomShape">
       <g id="id21">
        <rect class="BoundingBox" stroke="none" fill="none" x="13399" y="3499" width="3004" height="3004"/>
        <path fill="rgb(255,242,0)" stroke="none" d="M 13400,5000 L 13997,4403 13997,4694 14594,4694 14594,4097 14303,4097 14900,3500 15497,4097 15206,4097 15206,4694 15803,4694 15803,4403 16401,5000 15803,5597 15803,5306 15206,5306 15206,5903 15497,5903 14900,6501 14303,5903 14594,5903 14594,5306 13997,5306 13997,5597 13400,5000 Z M 13400,3500 L 13400,3500 Z M 16401,6501 L 16401,6501 Z"/>
        <path fill="none" stroke="rgb(52,101,164)" d="M 13400,5000 L 13997,4403 13997,4694 14594,4694 14594,4097 14303,4097 14900,3500 15497,4097 15206,4097 15206,4694 15803,4694 15803,4403 16401,5000 15803,5597 15803,5306 15206,5306 15206,5903 15497,5903 14900,6501 14303,5903 14594,5903 14594,5306 13997,5306 13997,5597 13400,5000 Z"/>
        <path fill="none" stroke="rgb(52,101,164)" d="M 13400,3500 L 13400,3500 Z"/>
        <path fill="none" stroke="rgb(52,101,164)" d="M 16401,6501 L 16401,6501 Z"/>
       </g>
      </g>
      <g class="com.sun.star.drawing.CustomShape">
       <g id="id22">
        <rect class="BoundingBox" stroke="none" fill="none" x="1400" y="3500" width="3004" height="3004"/>
        <path fill="rgb(255,242,0)" stroke="none" d="M 1401,5001 L 1998,4404 1998,4695 2595,4695 2595,4098 2304,4098 2901,3501 3498,4098 3207,4098 3207,4695 3804,4695 3804,4404 4402,5001 3804,5598 3804,5307 3207,5307 3207,5904 3498,5904 2901,6502 2304,5904 2595,5904 2595,5307 1998,5307 1998,5598 1401,5001 Z M 1401,3501 L 1401,3501 Z M 4402,6502 L 4402,6502 Z"/>
        <path fill="none" stroke="rgb(52,101,164)" d="M 1401,5001 L 1998,4404 1998,4695 2595,4695 2595,4098 2304,4098 2901,3501 3498,4098 3207,4098 3207,4695 3804,4695 3804,4404 4402,5001 3804,5598 3804,5307 3207,5307 3207,5904 3498,5904 2901,6502 2304,5904 2595,5904 2595,5307 1998,5307 1998,5598 1401,5001 Z"/>
        <path fill="none" stroke="rgb(52,101,164)" d="M 1401,3501 L 1401,3501 Z"/>
        <path fill="none" stroke="rgb(52,101,164)" d="M 4402,6502 L 4402,6502 Z"/>
       </g>
      </g>
      <g class="com.sun.star.drawing.CustomShape">
       <g id="id23">
        <rect class="BoundingBox" stroke="none" fill="none" x="885" y="3485" width="4004" height="3003"/>
        <path fill="rgb(239,65,61)" stroke="none" d="M 1386,6486 L 1495,5377 1880,5762 3661,3980 3276,3596 4386,3486 4276,4596 3892,4211 2110,5992 2495,6377 1386,6486 Z M 886,5987 L 886,5987 Z M 4887,3986 L 4887,3986 Z"/>
        <path fill="none" stroke="rgb(52,101,164)" d="M 1386,6486 L 1495,5377 1880,5762 3661,3980 3276,3596 4386,3486 4276,4596 3892,4211 2110,5992 2495,6377 1386,6486 Z"/>
        <path fill="none" stroke="rgb(52,101,164)" d="M 886,5987 L 886,5987 Z"/>
        <path fill="none" stroke="rgb(52,101,164)" d="M 4887,3986 L 4887,3986 Z"/>
       </g>
      </g>
      <g class="com.sun.star.drawing.CustomShape">
       <g id="id24">
        <rect class="BoundingBox" stroke="none" fill="none" x="806" y="2139" width="4245" height="5661"/>
        <path fill="rgb(237,28,36)" fill-opacity="0.502" stroke="rgb(255,255,255)" stroke-opacity="0.502" d="M 3635,2847 L 5049,4261 4342,6382 2221,7089 807,5675 1514,3554 3635,2847 Z M 2928,2140 L 2928,2140 Z M 2928,7798 L 2928,7798 Z"/>
        <path fill="none" stroke="rgb(52,101,164)" d="M 3635,2847 L 5049,4261 4342,6382 2221,7089 807,5675 1514,3554 3635,2847 Z"/>
        <path fill="none" stroke="rgb(52,101,164)" d="M 2928,2140 L 2928,2140 Z"/>
        <path fill="none" stroke="rgb(52,101,164)" d="M 2928,7798 L 2928,7798 Z"/>
       </g>
      </g>
     </g>
    </g>
   </g>
  </g>
 </g>
</svg>